<svg width="40" height="40" viewBox="0 0 40 40" fill="none" xmlns="http://www.w3.org/2000/svg">
<path fill-rule="evenodd" clip-rule="evenodd" d="M20 37C29.3888 37 37 29.3888 37 20C37 10.6112 29.3888 3 20 3C10.6112 3 3 10.6112 3 20C3 29.3888 10.6112 37 20 37ZM22.618 20.56L14.2145 26.3338C13.5472 26.7807 13 26.4528 13 25.6047L13 14.3942C13 13.5483 13.5472 13.2205 14.2145 13.6638L22.618 19.44C22.618 19.44 22.9435 19.6722 22.9435 19.9988C22.9435 20.3255 22.618 20.56 22.618 20.56ZM25.8333 27H24.6667C24.0215 27 23.5 26.944 23.5 26.3L23.5 13.7C23.5 13.056 24.0215 13 24.6667 13H25.8333C26.4785 13 27 13.056 27 13.7L27 26.3C27 26.944 26.4785 27 25.8333 27Z" fill="#C4C4C4"/>
</svg>
